<svg fill="#000000" xmlns="http://www.w3.org/2000/svg" viewBox="0 0 50 50" width="150px" height="150px"><path fill="none" stroke="#000000" stroke-miterlimit="10" stroke-width="2" d="M25 16A9 9 0 1 0 25 34A9 9 0 1 0 25 16Z"/><path fill="none" stroke="#000000" stroke-linecap="round" stroke-linejoin="round" stroke-miterlimit="10" stroke-width="2" d="M42.161,19.567C42.704,21.282,43,23.106,43,25c0,9.941-8.059,18-18,18S7,34.941,7,25c0-9.941,8.059-18,18-18c2.347,0,4.582,0.463,6.638,1.28c0.533-1.297,1.376-2.435,2.439-3.319C31.309,3.705,28.238,3,25,3C12.85,3,3,12.85,3,25s9.85,22,22,22s22-9.85,22-22c0-2.685-0.482-5.256-1.363-7.635C44.685,18.36,43.498,19.125,42.161,19.567z"/><path fill="none" stroke="#000000" stroke-miterlimit="10" stroke-width="2" d="M39.5 7A4.5 4.5 0 1 0 39.5 16A4.5 4.5 0 1 0 39.5 7Z"/></svg>